{
    "asset" : {
        "generator" : "Khronos glTF Blender I/O v1.1.46",
        "version" : "2.0"
    },
    "scene" : 0,
    "scenes" : [
        {
            "name" : "Scene",
            "nodes" : [
                0,
                1,
                2
            ]
        }
    ],
    "nodes" : [
        {
            "name" : "Light",
            "rotation" : [
                0.16907575726509094,
                0.7558803558349609,
                -0.27217137813568115,
                0.570947527885437
            ],
            "translation" : [
                4.2060723304748535,
                5.903861999511719,
                1.3306467533111572
            ]
        },
        {
            "name" : "Light.001",
            "rotation" : [
                0.16907575726509094,
                0.7558803558349609,
                -0.27217137813568115,
                0.570947527885437
            ],
            "translation" : [
                -5.473043918609619,
                12.706565856933594,
                0.7186874151229858
            ]
        },
        {
            "mesh" : 0,
            "name" : "marble sculpture.001",
            "rotation" : [
                0.7071068286895752,
                0,
                0,
                0.7071067094802856
            ],
            "scale" : [
                2.5514073371887207,
                2.5514073371887207,
                2.5514073371887207
            ],
            "translation" : [
                0,
                1.1886162757873535,
                0
            ]
        }
    ],
    "materials" : [
        {
            "doubleSided" : true,
            "emissiveFactor" : [
                0,
                0,
                0
            ],
            "name" : "Default OBJ.001",
            "pbrMetallicRoughness" : {
                "baseColorFactor" : [
                    0.800000011920929,
                    0.800000011920929,
                    0.800000011920929,
                    1
                ],
                "metallicFactor" : 0,
                "roughnessFactor" : 0.5
            }
        }
    ],
    "meshes" : [
        {
            "name" : "marble sculpture.001",
            "primitives" : [
                {
                    "attributes" : {
                        "POSITION" : 0,
                        "NORMAL" : 1
                    },
                    "indices" : 2,
                    "material" : 0
                }
            ]
        }
    ],
    "accessors" : [
        {
            "bufferView" : 0,
            "componentType" : 5126,
            "count" : 857460,
            "max" : [
                0.43491649627685547,
                0.3447186052799225,
                0.46362197399139404
            ],
            "min" : [
                -0.4349163770675659,
                -0.43963420391082764,
                -0.4810390770435333
            ],
            "type" : "VEC3"
        },
        {
            "bufferView" : 1,
            "componentType" : 5126,
            "count" : 857460,
            "type" : "VEC3"
        },
        {
            "bufferView" : 2,
            "componentType" : 5125,
            "count" : 857460,
            "type" : "SCALAR"
        }
    ],
    "bufferViews" : [
        {
            "buffer" : 0,
            "byteLength" : 10289520,
            "byteOffset" : 0
        },
        {
            "buffer" : 0,
            "byteLength" : 10289520,
            "byteOffset" : 10289520
        },
        {
            "buffer" : 0,
            "byteLength" : 3429840,
            "byteOffset" : 20579040
        }
    ],
    "buffers" : [
        {
            "byteLength" : 24008880,
            "uri" : "marble.bin"
        }
    ]
}
